PathFileType	4	(X/Y/Z)	Run_200 01
DataRate	CameraRate	NumFrames	NumMarkers	Units	OrigDataRate	OrigDataStartFrame	OrigNumFrames
120	120	5	42	mm	120	191	128
Frame#	Time	LASI			RASI			LPSI			RPSI			RTH1			RTH2			RTH3			LTH1			LTH2			LTH3			RTB2			RTB3			LTB1			LTB2			LTB3			RCAL			RTOE			RMT5			LCAL			LTOE			LMT5			LACR			RACR			CLAV			C7			RUA1			RUA2			RUA3			RLEL			RMEL			LUA1			LUA2			LUA3			LLEL			LMEL			RFAsuperior			RFAradius			RFAulna			LFAsuperior			LFAradius			LFAulna			RTB1		
		X1	Y1	Z1	X2	Y2	Z2	X3	Y3	Z3	X4	Y4	Z4	X5	Y5	Z5	X6	Y6	Z6	X7	Y7	Z7	X8	Y8	Z8	X9	Y9	Z9	X10	Y10	Z10	X11	Y11	Z11	X12	Y12	Z12	X13	Y13	Z13	X14	Y14	Z14	X15	Y15	Z15	X16	Y16	Z16	X17	Y17	Z17	X18	Y18	Z18	X19	Y19	Z19	X20	Y20	Z20	X21	Y21	Z21	X22	Y22	Z22	X23	Y23	Z23	X24	Y24	Z24	X25	Y25	Z25	X26	Y26	Z26	X27	Y27	Z27	X28	Y28	Z28	X29	Y29	Z29	X30	Y30	Z30	X31	Y31	Z31	X32	Y32	Z32	X33	Y33	Z33	X34	Y34	Z34	X35	Y35	Z35	X36	Y36	Z36	X37	Y37	Z37	X38	Y38	Z38	X39	Y39	Z39	X40	Y40	Z40	X41	Y41	Z41	X42	Y42	Z42	

191	  1.591667	496.038914	1030.329475	-428.956527	502.728630	1042.329803	-189.946097	333.941930	1059.015908	-342.583564	338.761514	1058.888194	-254.841262	516.213425	854.751166	-142.548704	601.113701	755.832773	-188.261273	559.283188	614.800912	-178.432112	439.342932	875.671875	-470.760540	476.201791	756.398993	-460.925492	386.425558	628.747688	-444.952545	610.045115	351.573940	-187.383495	631.923849	240.884990	-258.699790	324.117962	396.984593	-369.699399	210.522355	359.363578	-403.520893	173.692267	288.185589	-327.473636	528.485564	 97.972523	-263.976997	746.293042	104.106019	-283.871844	722.374153	 76.891445	-191.812562	 24.906934	305.852628	-309.254619	120.663498	112.363544	-306.351534	 65.336477	113.690332	-382.105279	503.686941	1479.034355	-467.254803	440.934466	1467.394076	-94.333530	554.405570	1442.817579	-238.345344	438.356805	1536.455887	-284.554135	386.350365	1376.902229	-31.937889	389.709582	1304.566773	-29.139335	285.670738	1312.418350	-14.710688	284.806286	1227.249784	 27.938770	246.622885	1213.385688	-52.125073	480.994285	1414.011647	-530.326513	408.541070	1361.497894	-543.193591	468.772430	1323.596242	-577.299511	442.696388	1222.676742	-626.248090	372.401753	1188.535103	-576.184616	358.494719	1189.207587	 26.929008	502.027643	1120.756020	-26.795728	460.038238	1067.969367	-23.174763	505.345647	1219.997602	-590.854647	593.562901	1205.531739	-436.865938	602.049598	1147.297493	-464.961419	641.860210	418.800697	-243.592150	
192	  1.600000	497.034826	1027.153195	-427.938474	503.395018	1038.447850	-189.143853	334.659741	1054.244399	-342.429647	339.268010	1053.421041	-254.662905	514.866893	848.424560	-141.873941	600.214377	749.890432	-186.901413	555.447827	608.010479	-178.487314	443.662314	872.149711	-470.952553	483.005048	753.370982	-462.043147	396.549754	623.644998	-448.320445	604.310234	344.038190	-188.686881	626.872626	233.538933	-260.276514	332.250976	394.413410	-372.924560	217.007531	361.595641	-406.180019	178.117254	294.360091	-327.641127	519.619344	 97.335540	-268.062152	737.991242	 91.529823	-284.473441	711.832313	 70.117203	-191.676848	 29.063872	316.565563	-309.480387	118.039197	119.846422	-309.871564	 61.693980	123.958054	-385.454514	502.861276	1474.455045	-466.799786	442.224417	1462.177352	-93.555001	554.969669	1438.278355	-238.267777	438.701353	1531.902947	-283.654831	388.519022	1371.288806	-30.702527	392.608292	1299.034002	-27.806253	288.491490	1305.981123	-13.064876	288.615333	1220.978898	 29.880215	250.181845	1206.465372	-50.033259	479.214998	1409.618136	-529.552917	406.110519	1357.656453	-541.691054	465.702959	1319.404269	-576.537142	438.340065	1218.768039	-625.403019	368.411423	1185.188743	-574.472523	362.766356	1183.829135	 28.686373	506.978347	1117.143271	-25.576320	465.580637	1063.902962	-21.610926	501.462173	1215.414064	-590.988262	591.496284	1200.077478	-437.777764	598.845920	1141.978541	-466.228998	637.618810	411.543789	-243.650618	
193	  1.608333	498.062909	1023.281244	-427.129076	503.994124	1033.598438	-188.022890	335.270727	1048.481715	-342.369476	339.631687	1047.145284	-254.469767	513.587147	841.888738	-141.718501	599.177366	743.396535	-184.782985	551.746938	601.168281	-178.896051	447.671210	867.849239	-470.784987	489.816335	749.848323	-463.093020	406.818125	618.144262	-451.815595	598.148436	336.598387	-190.781176	619.374175	225.971935	-262.857356	340.955649	391.642891	-376.499892	224.120321	363.769735	-409.033903	183.009394	299.740621	-329.071953	506.944752	 97.199031	-271.033996	725.720311	 81.548018	-285.397878	698.190403	 65.567517	-191.523572	 33.825471	326.662361	-309.432400	117.570049	127.774651	-313.846584	 60.458830	134.789828	-389.408638	501.751706	1469.020953	-466.350171	443.529608	1456.259742	-92.754598	555.614895	1433.022511	-238.290655	438.922608	1526.555408	-282.777131	390.902926	1364.865403	-29.419679	395.652079	1292.730713	-26.550315	291.596492	1298.645599	-11.125222	292.831486	1213.833808	 32.067297	254.132127	1198.575790	-47.632384	477.118364	1404.344397	-528.766396	403.377766	1353.012004	-540.171313	462.293982	1314.404259	-575.772779	433.541712	1214.198589	-624.634861	364.069819	1181.087995	-572.752550	367.486500	1177.664195	 30.605562	512.291127	1112.927218	-24.534960	471.630378	1059.081765	-19.948330	497.054299	1210.132889	-591.014725	589.201870	1193.887596	-439.065712	595.432065	1135.853768	-467.865702	633.484731	404.118983	-244.586598	
194	  1.616667	499.229800	1018.740810	-426.470043	504.255218	1027.539075	-186.631373	335.554022	1041.796617	-342.238364	339.181196	1040.138427	-254.079250	512.050693	835.828849	-141.598539	597.853976	737.116933	-181.953704	548.860575	595.263669	-179.624145	451.502480	862.597510	-470.211045	496.690509	745.798257	-464.058662	417.401209	612.282128	-455.269989	592.328321	330.513930	-193.569153	609.497659	219.525897	-266.371856	350.337106	388.692832	-380.368053	231.940653	365.971401	-411.951180	188.177665	303.718002	-332.374960	491.401599	 97.100004	-272.648275	710.320726	 75.956201	-286.485655	682.420118	 63.620546	-191.755392	 39.779509	336.300169	-309.581205	119.035343	135.781183	-318.180953	 61.449527	145.680636	-393.700893	500.422645	1462.865307	-465.962992	444.927991	1449.850962	-91.846174	556.534772	1427.055674	-238.408287	438.933175	1520.381610	-281.973375	393.560977	1357.635482	-28.089537	398.851136	1285.692740	-25.414922	295.000344	1290.499207	 -8.944298	297.469501	1205.877884	 34.484677	258.513686	1189.814191	-44.950945	474.722909	1398.266888	-527.997029	400.340213	1347.630730	-538.590077	458.579215	1308.659676	-575.015062	428.330274	1209.057920	-623.938708	359.473691	1176.323630	-571.047063	372.660778	1170.799211	 32.628101	517.932468	1108.129859	-23.729853	478.119760	1053.560517	-18.269220	492.113010	1204.250923	-590.803914	586.654248	1186.989332	-440.726161	591.825074	1128.937334	-469.861074	629.553520	397.555631	-246.929695	
195	  1.625000	500.535735	1013.582022	-425.846003	503.849484	1020.412770	-185.004191	335.158723	1034.182375	-341.941439	337.522822	1032.463588	-253.515277	509.948497	830.870143	-141.143874	596.432037	732.111360	-179.057787	547.485304	591.112999	-180.336457	455.383211	856.477063	-469.433465	503.680545	741.304762	-464.954402	428.442567	606.149531	-458.439314	587.419462	326.759812	-196.439262	598.177472	215.397853	-270.051811	360.512674	385.708717	-384.119565	240.693746	368.173535	-414.779690	194.046664	306.586303	-336.931573	474.531986	 97.020268	-273.201755	693.351009	 74.169634	-287.426136	665.732110	 63.497602	-192.408839	 47.384923	345.534236	-310.383364	122.195536	143.528564	-322.754126	 64.435740	156.176923	-398.159514	498.976384	1456.202758	-465.731683	446.542318	1443.190248	-90.696147	557.937112	1420.403739	-238.573537	438.741222	1513.525436	-281.263870	396.572974	1349.582670	-26.717863	402.289499	1277.951062	-24.305355	298.745779	1281.636930	 -6.557473	302.551442	1197.201080	 37.126580	263.369883	1180.338054	-42.022817	472.056786	1391.477708	-527.331371	396.968126	1341.579126	-536.922366	454.560050	1302.271488	-574.281159	422.726146	1203.474188	-623.301886	354.725557	1171.047149	-569.357706	378.315599	1163.312760	 34.750785	523.922080	1102.763126	-23.129390	485.021050	1047.417664	-16.702349	486.732208	1197.872361	-590.508362	583.854730	1179.377232	-442.712868	588.073676	1121.291101	-472.239551	625.751606	392.702355	-250.455305	
